<?xml version="1.0" ?><svg viewBox="0 0 512 512" xmlns="http://www.w3.org/2000/svg"><defs><style>.cls-1{fill:#f9b7b7;}.cls-2{fill:#cbe2ef;}.cls-3{fill:#d27676;}.cls-4{fill:#338dbf;}.cls-5{fill:#5ca4cc;}.cls-6{fill:#ea8383;}.cls-7{fill:#7db6d6;}.cls-8{fill:#0071af;}.cls-9{fill:#2b78a3;}.cls-10{fill:#00659d;}.cls-11{fill:#005686;}.cls-12{fill:#575757;}.cls-13{fill:#4a4a4a;}</style></defs><g data-name="/ FILLED_OUTLINE" id="_FILLED_OUTLINE"><path class="cls-1" d="M202.83252,264a15.99985,15.99985,0,0,1-14.85559-10.05774l-3.93079-9.82678A31.99989,31.99989,0,0,0,154.335,224H96v48a32,32,0,0,0,32,32h56l5.05957,15.179A48.00027,48.00027,0,0,0,234.59644,352H264V264Z"/><path class="cls-2" d="M184,304l5.05957,15.179A48.00027,48.00027,0,0,0,234.59644,352H264V264H210.66675Z"/><path class="cls-3" d="M128,304V224H96v48a32,32,0,0,0,32,32Z"/><path class="cls-4" d="M456,256H216V368H488V288A32,32,0,0,0,456,256Z"/><path class="cls-4" d="M80,304h64a16,16,0,0,1,16,16v16a16,16,0,0,1-16,16H64a0,0,0,0,1,0,0V320A16,16,0,0,1,80,304Z"/><rect class="cls-5" height="24" width="16" x="248" y="256"/><rect class="cls-5" height="16" width="16" x="248" y="296"/><rect class="cls-5" height="24" width="16" x="248" y="328"/><path class="cls-6" d="M298.13428,164.84033a104.03918,104.03918,0,0,1,138.70605-138.706l-6.89648,14.4375A88.03888,88.03888,0,0,0,312.57178,157.94385Z"/><polygon class="cls-6" points="330.809 151.491 325.191 136.509 384 114.456 384 56 400 56 400 125.544 330.809 151.491"/><polygon class="cls-7" points="160 184 120 184 120 164.687 140.687 144 120 144 120 128 160 128 160 147.313 139.313 168 160 168 160 184"/><polygon class="cls-7" points="192 88 136 88 136 59.471 176 35.471 176 32 136 32 136 16 192 16 192 44.529 152 68.529 152 72 192 72 192 88"/><polygon class="cls-7" points="80 152 16 152 16 123.719 64 91.719 64 88 16 88 16 72 80 72 80 100.281 32 132.281 32 136 80 136 80 152"/><path class="cls-8" d="M459.88232,52.11768v.00024a135.76458,135.76458,0,0,1-135.7644,135.7644h-.00024A96.0001,96.0001,0,0,0,459.88232,52.11768Z"/><polygon class="cls-7" points="256 152 216 152 216 132.687 236.687 112 216 112 216 96 256 96 256 115.313 235.313 136 256 136 256 152"/><polygon class="cls-7" points="232 224 200 224 200 204.687 212.687 192 200 192 200 176 232 176 232 195.313 219.313 208 232 208 232 224"/><path class="cls-9" d="M65.09814,314.20691A15.932,15.932,0,0,0,64,320v32h48A48.00988,48.00988,0,0,1,65.09814,314.20691Z"/><path class="cls-9" d="M487.93335,286.02515c-.01123-.18555-.02759-.36975-.04211-.55457q-.05878-.74652-.15064-1.48352c-.02087-.167-.04016-.33447-.0636-.50061a31.79714,31.79714,0,0,0-.792-3.86255c-.02429-.08972-.051-.17834-.07605-.26782q-.243-.86555-.53162-1.7113c-.0216-.06324-.04223-.12671-.06421-.1897a31.956,31.956,0,0,0-2.56079-5.55225A262.426,262.426,0,0,1,445.28125,368H488V288C488,287.33618,487.97339,286.67883,487.93335,286.02515Z"/><path class="cls-10" d="M488,416V368a16,16,0,0,0-16-16H64v64Z"/><path class="cls-11" d="M472,352H454.92139a265.01177,265.01177,0,0,1-49.74317,64H488V368A16,16,0,0,0,472,352Z"/><path class="cls-12" d="M44,488h0a20,20,0,0,1-20-20V252a20,20,0,0,1,20-20h0a20,20,0,0,1,20,20V384a16,16,0,0,0,16,16H472a16,16,0,0,1,16,16v52a20,20,0,0,1-20,20h0a20,20,0,0,1-20-20V456a16,16,0,0,0-16-16H80a16,16,0,0,0-16,16v12A20,20,0,0,1,44,488Z"/><path class="cls-13" d="M472,400H420.75537a265.44932,265.44932,0,0,1-44.94824,40H432a16,16,0,0,1,16,16v12a20,20,0,0,0,40,0V416A16,16,0,0,0,472,400Z"/><path d="M456,248H208v8h-5.16748a7.96231,7.96231,0,0,1-7.42773-5.02881l-3.93067-9.82666A39.80864,39.80864,0,0,0,154.335,216H88v56a39.79083,39.79083,0,0,0,8.02185,24H80a23.88532,23.88532,0,0,0-8,1.3761V252a28,28,0,0,0-56,0V468a28,28,0,0,0,56,0V456a8.00917,8.00917,0,0,1,8-8H432a8.00917,8.00917,0,0,1,8,8v12a28,28,0,0,0,56,0V288A40.04521,40.04521,0,0,0,456,248ZM248,264v16h16V264H456a24.0275,24.0275,0,0,1,24,24v57.3761A23.88532,23.88532,0,0,0,472,344H264V328H248v16H234.59668A40.06953,40.06953,0,0,1,224,342.57349V264Zm-81.3761,48h11.61l3.23632,9.7085A55.94371,55.94371,0,0,0,195.38623,344H166.6239A23.88532,23.88532,0,0,0,168,336V320A23.88532,23.88532,0,0,0,166.6239,312ZM208,279.54932v54.33422a39.946,39.946,0,0,1-11.35107-17.23461l-3.89588-11.688Zm-31.38135-32.46241,3.93067,9.82666a23.87043,23.87043,0,0,0,14.16845,13.67408L179.47046,296H136V232h18.335A23.88567,23.88567,0,0,1,176.61865,247.08691ZM104,232h16v62.62378A24.03824,24.03824,0,0,1,104,272ZM80,312h64a8.00917,8.00917,0,0,1,8,8v16a8.00917,8.00917,0,0,1-8,8H72V320A8.00917,8.00917,0,0,1,80,312ZM480,468a12,12,0,0,1-24,0V456a24.0275,24.0275,0,0,0-24-24H80a24.0275,24.0275,0,0,0-24,24v12a12,12,0,0,1-24,0V252a12,12,0,0,1,24,0V384a24.0275,24.0275,0,0,0,24,24H472a8.00917,8.00917,0,0,1,8,8Zm0-74.62378A23.88238,23.88238,0,0,0,472,392H80a8.00917,8.00917,0,0,1-8-8V360H472a8.00917,8.00917,0,0,1,8,8Z"/><rect height="16" width="16" x="248" y="296"/><path d="M312.57178,157.94385A88.03888,88.03888,0,0,1,429.94385,40.57178l6.89648-14.4375a104.03918,104.03918,0,0,0-138.706,138.70605Z"/><polygon points="400 56 384 56 384 114.456 325.191 136.509 330.809 151.491 400 125.544 400 56"/><polygon points="160 168 139.313 168 160 147.313 160 128 120 128 120 144 140.687 144 120 164.687 120 184 160 184 160 168"/><polygon points="192 72 152 72 152 68.529 192 44.529 192 16 136 16 136 32 176 32 176 35.471 136 59.471 136 88 192 88 192 72"/><polygon points="80 136 32 136 32 132.281 80 100.281 80 72 16 72 16 88 64 88 64 91.719 16 123.719 16 152 80 152 80 136"/><path d="M324.11768,179.88232h-19.314l13.65723,13.65674A103.99994,103.99994,0,0,0,465.53906,46.46094L451.88232,32.8042v19.314A127.90919,127.90919,0,0,1,324.11768,179.88232ZM466.37744,72.94873A88.013,88.013,0,0,1,344.94922,194.37744,144.10307,144.10307,0,0,0,466.37744,72.94873Z"/><polygon points="256 136 235.313 136 256 115.313 256 96 216 96 216 112 236.687 112 216 132.687 216 152 256 152 256 136"/><polygon points="232 208 219.313 208 232 195.313 232 176 200 176 200 192 212.687 192 200 204.687 200 224 232 224 232 208"/></g></svg>